<mxfile host="app.diagrams.net" agent="Mozilla/5.0 (Windows NT 10.0; Win64; x64) AppleWebKit/537.36 (KHTML, like Gecko) Chrome/122.0.0.0 Safari/537.36" version="24.7.13">
  <diagram id="C5RBs43oDa-KdzZeNtuy" name="Page-1">
    <mxGraphModel dx="1050" dy="530" grid="1" gridSize="10" guides="1" tooltips="1" connect="1" arrows="1" fold="1" page="1" pageScale="1" pageWidth="827" pageHeight="1169" math="0" shadow="0">
      <root>
        <mxCell id="WIyWlLk6GJQsqaUBKTNV-0" />
        <mxCell id="WIyWlLk6GJQsqaUBKTNV-1" parent="WIyWlLk6GJQsqaUBKTNV-0" />
        <mxCell id="cwxM7d6N_yPW7Ndx6GQJ-0" value="&lt;strong&gt;&lt;font style=&quot;font-size: 18px;&quot;&gt;Admin&lt;/font&gt;&lt;/strong&gt;" style="rounded=0;whiteSpace=wrap;html=1;" vertex="1" parent="WIyWlLk6GJQsqaUBKTNV-1">
          <mxGeometry x="354" y="210" width="120" height="70" as="geometry" />
        </mxCell>
        <mxCell id="cwxM7d6N_yPW7Ndx6GQJ-1" value="AdminID&lt;br&gt;&lt;br&gt;PK" style="ellipse;whiteSpace=wrap;html=1;" vertex="1" parent="WIyWlLk6GJQsqaUBKTNV-1">
          <mxGeometry x="80" y="70" width="120" height="80" as="geometry" />
        </mxCell>
        <mxCell id="cwxM7d6N_yPW7Ndx6GQJ-2" value="Username&lt;br&gt;&lt;div&gt;&lt;br/&gt;&lt;/div&gt;" style="ellipse;whiteSpace=wrap;html=1;" vertex="1" parent="WIyWlLk6GJQsqaUBKTNV-1">
          <mxGeometry x="354" y="70" width="120" height="80" as="geometry" />
        </mxCell>
        <mxCell id="cwxM7d6N_yPW7Ndx6GQJ-3" value="Password&lt;br&gt;&lt;br&gt;Encrypted" style="ellipse;whiteSpace=wrap;html=1;" vertex="1" parent="WIyWlLk6GJQsqaUBKTNV-1">
          <mxGeometry x="630" y="60" width="120" height="80" as="geometry" />
        </mxCell>
        <mxCell id="cwxM7d6N_yPW7Ndx6GQJ-4" value="" style="endArrow=none;html=1;rounded=0;" edge="1" parent="WIyWlLk6GJQsqaUBKTNV-1" target="cwxM7d6N_yPW7Ndx6GQJ-1">
          <mxGeometry width="50" height="50" relative="1" as="geometry">
            <mxPoint x="360" y="210" as="sourcePoint" />
            <mxPoint x="440" y="180" as="targetPoint" />
          </mxGeometry>
        </mxCell>
        <mxCell id="cwxM7d6N_yPW7Ndx6GQJ-5" value="" style="endArrow=none;html=1;rounded=0;" edge="1" parent="WIyWlLk6GJQsqaUBKTNV-1" source="cwxM7d6N_yPW7Ndx6GQJ-0">
          <mxGeometry width="50" height="50" relative="1" as="geometry">
            <mxPoint x="571" y="227" as="sourcePoint" />
            <mxPoint x="410" y="150" as="targetPoint" />
          </mxGeometry>
        </mxCell>
        <mxCell id="cwxM7d6N_yPW7Ndx6GQJ-6" value="" style="endArrow=none;html=1;rounded=0;entryX=0.1;entryY=0.863;entryDx=0;entryDy=0;entryPerimeter=0;exitX=1;exitY=0;exitDx=0;exitDy=0;" edge="1" parent="WIyWlLk6GJQsqaUBKTNV-1" source="cwxM7d6N_yPW7Ndx6GQJ-0" target="cwxM7d6N_yPW7Ndx6GQJ-3">
          <mxGeometry width="50" height="50" relative="1" as="geometry">
            <mxPoint x="423" y="220" as="sourcePoint" />
            <mxPoint x="420" y="160" as="targetPoint" />
          </mxGeometry>
        </mxCell>
        <mxCell id="cwxM7d6N_yPW7Ndx6GQJ-8" value="&lt;font style=&quot;font-size: 18px;&quot;&gt;&lt;b&gt;Coupon&lt;/b&gt;&lt;/font&gt;" style="rounded=0;whiteSpace=wrap;html=1;" vertex="1" parent="WIyWlLk6GJQsqaUBKTNV-1">
          <mxGeometry x="354" y="450" width="120" height="70" as="geometry" />
        </mxCell>
        <mxCell id="cwxM7d6N_yPW7Ndx6GQJ-9" value="CouponID&lt;br&gt;&lt;br&gt;PK" style="ellipse;whiteSpace=wrap;html=1;" vertex="1" parent="WIyWlLk6GJQsqaUBKTNV-1">
          <mxGeometry x="50" y="440" width="70" height="60" as="geometry" />
        </mxCell>
        <mxCell id="cwxM7d6N_yPW7Ndx6GQJ-10" value="&#xa;Code&#xa;&#xa;" style="ellipse;whiteSpace=wrap;html=1;" vertex="1" parent="WIyWlLk6GJQsqaUBKTNV-1">
          <mxGeometry x="42" y="530" width="86" height="60" as="geometry" />
        </mxCell>
        <mxCell id="cwxM7d6N_yPW7Ndx6GQJ-11" value="&lt;br&gt;&lt;code&gt;Description&lt;/code&gt;" style="ellipse;whiteSpace=wrap;html=1;" vertex="1" parent="WIyWlLk6GJQsqaUBKTNV-1">
          <mxGeometry x="42" y="610" width="86" height="60" as="geometry" />
        </mxCell>
        <mxCell id="cwxM7d6N_yPW7Ndx6GQJ-13" value="&lt;br&gt;&lt;code&gt;DiscountValue&lt;/code&gt;" style="ellipse;whiteSpace=wrap;html=1;" vertex="1" parent="WIyWlLk6GJQsqaUBKTNV-1">
          <mxGeometry x="170" y="610" width="102" height="60" as="geometry" />
        </mxCell>
        <mxCell id="cwxM7d6N_yPW7Ndx6GQJ-14" value="&lt;br&gt;&lt;code&gt;IsPercentage&lt;/code&gt;" style="ellipse;whiteSpace=wrap;html=1;" vertex="1" parent="WIyWlLk6GJQsqaUBKTNV-1">
          <mxGeometry x="290" y="610" width="102" height="60" as="geometry" />
        </mxCell>
        <mxCell id="cwxM7d6N_yPW7Ndx6GQJ-15" value="&lt;br&gt;&lt;code&gt;ExpiryDate&lt;/code&gt;" style="ellipse;whiteSpace=wrap;html=1;" vertex="1" parent="WIyWlLk6GJQsqaUBKTNV-1">
          <mxGeometry x="450" y="610" width="102" height="60" as="geometry" />
        </mxCell>
        <mxCell id="cwxM7d6N_yPW7Ndx6GQJ-16" value="&lt;br&gt;&lt;code&gt;IsStackable&lt;/code&gt;" style="ellipse;whiteSpace=wrap;html=1;" vertex="1" parent="WIyWlLk6GJQsqaUBKTNV-1">
          <mxGeometry x="590" y="610" width="102" height="60" as="geometry" />
        </mxCell>
        <mxCell id="cwxM7d6N_yPW7Ndx6GQJ-17" value="&lt;br&gt;&lt;code&gt;CreatedDate&lt;/code&gt;" style="ellipse;whiteSpace=wrap;html=1;" vertex="1" parent="WIyWlLk6GJQsqaUBKTNV-1">
          <mxGeometry x="710" y="500" width="102" height="60" as="geometry" />
        </mxCell>
        <mxCell id="cwxM7d6N_yPW7Ndx6GQJ-18" value="&lt;code&gt;CreatedBy&lt;br&gt;FK&lt;/code&gt;" style="ellipse;whiteSpace=wrap;html=1;" vertex="1" parent="WIyWlLk6GJQsqaUBKTNV-1">
          <mxGeometry x="710" y="440" width="102" height="60" as="geometry" />
        </mxCell>
        <mxCell id="cwxM7d6N_yPW7Ndx6GQJ-19" value="Create" style="rhombus;whiteSpace=wrap;html=1;" vertex="1" parent="WIyWlLk6GJQsqaUBKTNV-1">
          <mxGeometry x="374" y="320" width="80" height="80" as="geometry" />
        </mxCell>
        <mxCell id="cwxM7d6N_yPW7Ndx6GQJ-20" value="" style="endArrow=none;html=1;rounded=0;entryX=0.5;entryY=1;entryDx=0;entryDy=0;exitX=0.5;exitY=0;exitDx=0;exitDy=0;" edge="1" parent="WIyWlLk6GJQsqaUBKTNV-1" source="cwxM7d6N_yPW7Ndx6GQJ-8" target="cwxM7d6N_yPW7Ndx6GQJ-19">
          <mxGeometry width="50" height="50" relative="1" as="geometry">
            <mxPoint x="470" y="420" as="sourcePoint" />
            <mxPoint x="520" y="370" as="targetPoint" />
          </mxGeometry>
        </mxCell>
        <mxCell id="cwxM7d6N_yPW7Ndx6GQJ-21" value="" style="endArrow=none;html=1;rounded=0;entryX=0.5;entryY=1;entryDx=0;entryDy=0;exitX=0.5;exitY=0;exitDx=0;exitDy=0;" edge="1" parent="WIyWlLk6GJQsqaUBKTNV-1" source="cwxM7d6N_yPW7Ndx6GQJ-19">
          <mxGeometry width="50" height="50" relative="1" as="geometry">
            <mxPoint x="413" y="330" as="sourcePoint" />
            <mxPoint x="413" y="280" as="targetPoint" />
          </mxGeometry>
        </mxCell>
        <mxCell id="cwxM7d6N_yPW7Ndx6GQJ-22" value="1" style="text;html=1;align=center;verticalAlign=middle;whiteSpace=wrap;rounded=0;" vertex="1" parent="WIyWlLk6GJQsqaUBKTNV-1">
          <mxGeometry x="420" y="280" width="60" height="30" as="geometry" />
        </mxCell>
        <mxCell id="cwxM7d6N_yPW7Ndx6GQJ-23" value="M" style="text;html=1;align=center;verticalAlign=middle;whiteSpace=wrap;rounded=0;" vertex="1" parent="WIyWlLk6GJQsqaUBKTNV-1">
          <mxGeometry x="414" y="420" width="60" height="30" as="geometry" />
        </mxCell>
        <mxCell id="cwxM7d6N_yPW7Ndx6GQJ-24" value="" style="endArrow=none;html=1;rounded=0;exitX=1;exitY=0.5;exitDx=0;exitDy=0;entryX=0;entryY=0.25;entryDx=0;entryDy=0;" edge="1" parent="WIyWlLk6GJQsqaUBKTNV-1" source="cwxM7d6N_yPW7Ndx6GQJ-9" target="cwxM7d6N_yPW7Ndx6GQJ-8">
          <mxGeometry width="50" height="50" relative="1" as="geometry">
            <mxPoint x="170" y="520" as="sourcePoint" />
            <mxPoint x="350" y="470" as="targetPoint" />
          </mxGeometry>
        </mxCell>
        <mxCell id="cwxM7d6N_yPW7Ndx6GQJ-25" value="" style="endArrow=none;html=1;rounded=0;exitX=1;exitY=0.5;exitDx=0;exitDy=0;entryX=0;entryY=0.75;entryDx=0;entryDy=0;" edge="1" parent="WIyWlLk6GJQsqaUBKTNV-1" target="cwxM7d6N_yPW7Ndx6GQJ-8">
          <mxGeometry width="50" height="50" relative="1" as="geometry">
            <mxPoint x="128" y="559" as="sourcePoint" />
            <mxPoint x="350" y="500" as="targetPoint" />
          </mxGeometry>
        </mxCell>
        <mxCell id="cwxM7d6N_yPW7Ndx6GQJ-26" value="" style="endArrow=none;html=1;rounded=0;exitX=0.912;exitY=0.293;exitDx=0;exitDy=0;entryX=0;entryY=0.75;entryDx=0;entryDy=0;exitPerimeter=0;" edge="1" parent="WIyWlLk6GJQsqaUBKTNV-1" source="cwxM7d6N_yPW7Ndx6GQJ-11">
          <mxGeometry width="50" height="50" relative="1" as="geometry">
            <mxPoint x="138" y="576" as="sourcePoint" />
            <mxPoint x="364" y="520" as="targetPoint" />
          </mxGeometry>
        </mxCell>
        <mxCell id="cwxM7d6N_yPW7Ndx6GQJ-27" value="" style="endArrow=none;html=1;rounded=0;entryX=0.25;entryY=1;entryDx=0;entryDy=0;" edge="1" parent="WIyWlLk6GJQsqaUBKTNV-1" source="cwxM7d6N_yPW7Ndx6GQJ-13" target="cwxM7d6N_yPW7Ndx6GQJ-8">
          <mxGeometry width="50" height="50" relative="1" as="geometry">
            <mxPoint x="140" y="640" as="sourcePoint" />
            <mxPoint x="374" y="530" as="targetPoint" />
          </mxGeometry>
        </mxCell>
        <mxCell id="cwxM7d6N_yPW7Ndx6GQJ-28" value="" style="endArrow=none;html=1;rounded=0;entryX=0.347;entryY=1.04;entryDx=0;entryDy=0;entryPerimeter=0;exitX=0.5;exitY=0;exitDx=0;exitDy=0;" edge="1" parent="WIyWlLk6GJQsqaUBKTNV-1" source="cwxM7d6N_yPW7Ndx6GQJ-14" target="cwxM7d6N_yPW7Ndx6GQJ-8">
          <mxGeometry width="50" height="50" relative="1" as="geometry">
            <mxPoint x="263" y="627" as="sourcePoint" />
            <mxPoint x="394" y="530" as="targetPoint" />
          </mxGeometry>
        </mxCell>
        <mxCell id="cwxM7d6N_yPW7Ndx6GQJ-29" value="" style="endArrow=none;html=1;rounded=0;entryX=0.347;entryY=1.04;entryDx=0;entryDy=0;entryPerimeter=0;exitX=0.4;exitY=0.013;exitDx=0;exitDy=0;exitPerimeter=0;" edge="1" parent="WIyWlLk6GJQsqaUBKTNV-1" source="cwxM7d6N_yPW7Ndx6GQJ-15">
          <mxGeometry width="50" height="50" relative="1" as="geometry">
            <mxPoint x="395" y="607" as="sourcePoint" />
            <mxPoint x="450" y="520" as="targetPoint" />
          </mxGeometry>
        </mxCell>
        <mxCell id="cwxM7d6N_yPW7Ndx6GQJ-30" value="" style="endArrow=none;html=1;rounded=0;entryX=1;entryY=1;entryDx=0;entryDy=0;exitX=0.4;exitY=0.013;exitDx=0;exitDy=0;exitPerimeter=0;" edge="1" parent="WIyWlLk6GJQsqaUBKTNV-1" target="cwxM7d6N_yPW7Ndx6GQJ-8">
          <mxGeometry width="50" height="50" relative="1" as="geometry">
            <mxPoint x="601" y="621" as="sourcePoint" />
            <mxPoint x="560" y="530" as="targetPoint" />
          </mxGeometry>
        </mxCell>
        <mxCell id="cwxM7d6N_yPW7Ndx6GQJ-31" value="" style="endArrow=none;html=1;rounded=0;entryX=1;entryY=0.75;entryDx=0;entryDy=0;exitX=0.4;exitY=0.013;exitDx=0;exitDy=0;exitPerimeter=0;" edge="1" parent="WIyWlLk6GJQsqaUBKTNV-1" target="cwxM7d6N_yPW7Ndx6GQJ-8">
          <mxGeometry width="50" height="50" relative="1" as="geometry">
            <mxPoint x="717" y="621" as="sourcePoint" />
            <mxPoint x="590" y="520" as="targetPoint" />
          </mxGeometry>
        </mxCell>
        <mxCell id="cwxM7d6N_yPW7Ndx6GQJ-32" value="" style="endArrow=none;html=1;rounded=0;entryX=1;entryY=0.5;entryDx=0;entryDy=0;exitX=0.4;exitY=0.013;exitDx=0;exitDy=0;exitPerimeter=0;" edge="1" parent="WIyWlLk6GJQsqaUBKTNV-1" target="cwxM7d6N_yPW7Ndx6GQJ-8">
          <mxGeometry width="50" height="50" relative="1" as="geometry">
            <mxPoint x="710" y="530" as="sourcePoint" />
            <mxPoint x="467" y="412" as="targetPoint" />
          </mxGeometry>
        </mxCell>
        <mxCell id="cwxM7d6N_yPW7Ndx6GQJ-33" value="" style="endArrow=none;html=1;rounded=0;entryX=1;entryY=0.25;entryDx=0;entryDy=0;exitX=0;exitY=0.5;exitDx=0;exitDy=0;" edge="1" parent="WIyWlLk6GJQsqaUBKTNV-1" source="cwxM7d6N_yPW7Ndx6GQJ-18" target="cwxM7d6N_yPW7Ndx6GQJ-8">
          <mxGeometry width="50" height="50" relative="1" as="geometry">
            <mxPoint x="720" y="540" as="sourcePoint" />
            <mxPoint x="484" y="495" as="targetPoint" />
          </mxGeometry>
        </mxCell>
        <mxCell id="cwxM7d6N_yPW7Ndx6GQJ-34" value="&lt;code&gt;MaxUses&lt;/code&gt;" style="ellipse;whiteSpace=wrap;html=1;" vertex="1" parent="WIyWlLk6GJQsqaUBKTNV-1">
          <mxGeometry x="710" y="600" width="102" height="60" as="geometry" />
        </mxCell>
        <mxCell id="cwxM7d6N_yPW7Ndx6GQJ-35" value="&lt;font style=&quot;font-size: 18px;&quot;&gt;&lt;b&gt;CouponUsage&lt;/b&gt;&lt;/font&gt;" style="rounded=0;whiteSpace=wrap;html=1;" vertex="1" parent="WIyWlLk6GJQsqaUBKTNV-1">
          <mxGeometry x="354" y="770" width="126" height="70" as="geometry" />
        </mxCell>
        <mxCell id="cwxM7d6N_yPW7Ndx6GQJ-36" value="&lt;code&gt;UsageID&lt;br&gt;&lt;/code&gt;PK" style="ellipse;whiteSpace=wrap;html=1;" vertex="1" parent="WIyWlLk6GJQsqaUBKTNV-1">
          <mxGeometry x="120" y="900" width="86" height="60" as="geometry" />
        </mxCell>
        <mxCell id="cwxM7d6N_yPW7Ndx6GQJ-37" value="&lt;br&gt;&lt;code&gt;CouponID&lt;br&gt;&lt;/code&gt;FK&lt;div&gt;&lt;br/&gt;&lt;/div&gt;" style="ellipse;whiteSpace=wrap;html=1;" vertex="1" parent="WIyWlLk6GJQsqaUBKTNV-1">
          <mxGeometry x="250" y="900" width="86" height="60" as="geometry" />
        </mxCell>
        <mxCell id="cwxM7d6N_yPW7Ndx6GQJ-38" value="&lt;code&gt;UsageDate&lt;/code&gt;" style="ellipse;whiteSpace=wrap;html=1;" vertex="1" parent="WIyWlLk6GJQsqaUBKTNV-1">
          <mxGeometry x="371" y="900" width="86" height="60" as="geometry" />
        </mxCell>
        <mxCell id="cwxM7d6N_yPW7Ndx6GQJ-39" value="PriceBefore" style="ellipse;whiteSpace=wrap;html=1;" vertex="1" parent="WIyWlLk6GJQsqaUBKTNV-1">
          <mxGeometry x="500" y="900" width="86" height="60" as="geometry" />
        </mxCell>
        <mxCell id="cwxM7d6N_yPW7Ndx6GQJ-41" value="&lt;code&gt;DiscountAmount&lt;/code&gt;" style="ellipse;whiteSpace=wrap;html=1;" vertex="1" parent="WIyWlLk6GJQsqaUBKTNV-1">
          <mxGeometry x="620" y="900" width="110" height="60" as="geometry" />
        </mxCell>
        <mxCell id="cwxM7d6N_yPW7Ndx6GQJ-42" value="" style="endArrow=none;html=1;rounded=0;entryX=0;entryY=0.5;entryDx=0;entryDy=0;exitX=0.4;exitY=0.013;exitDx=0;exitDy=0;exitPerimeter=0;" edge="1" parent="WIyWlLk6GJQsqaUBKTNV-1" target="cwxM7d6N_yPW7Ndx6GQJ-35">
          <mxGeometry width="50" height="50" relative="1" as="geometry">
            <mxPoint x="191" y="911" as="sourcePoint" />
            <mxPoint x="150" y="820" as="targetPoint" />
          </mxGeometry>
        </mxCell>
        <mxCell id="cwxM7d6N_yPW7Ndx6GQJ-43" value="" style="endArrow=none;html=1;rounded=0;entryX=0;entryY=1;entryDx=0;entryDy=0;exitX=0.5;exitY=0;exitDx=0;exitDy=0;" edge="1" parent="WIyWlLk6GJQsqaUBKTNV-1" source="cwxM7d6N_yPW7Ndx6GQJ-37" target="cwxM7d6N_yPW7Ndx6GQJ-35">
          <mxGeometry width="50" height="50" relative="1" as="geometry">
            <mxPoint x="201" y="921" as="sourcePoint" />
            <mxPoint x="364" y="815" as="targetPoint" />
          </mxGeometry>
        </mxCell>
        <mxCell id="cwxM7d6N_yPW7Ndx6GQJ-44" value="" style="endArrow=none;html=1;rounded=0;entryX=0.438;entryY=1.04;entryDx=0;entryDy=0;exitX=0.5;exitY=0;exitDx=0;exitDy=0;entryPerimeter=0;" edge="1" parent="WIyWlLk6GJQsqaUBKTNV-1" source="cwxM7d6N_yPW7Ndx6GQJ-38" target="cwxM7d6N_yPW7Ndx6GQJ-35">
          <mxGeometry width="50" height="50" relative="1" as="geometry">
            <mxPoint x="303" y="910" as="sourcePoint" />
            <mxPoint x="364" y="850" as="targetPoint" />
          </mxGeometry>
        </mxCell>
        <mxCell id="cwxM7d6N_yPW7Ndx6GQJ-45" value="" style="endArrow=none;html=1;rounded=0;entryX=1;entryY=1;entryDx=0;entryDy=0;exitX=0.5;exitY=0;exitDx=0;exitDy=0;" edge="1" parent="WIyWlLk6GJQsqaUBKTNV-1" target="cwxM7d6N_yPW7Ndx6GQJ-35">
          <mxGeometry width="50" height="50" relative="1" as="geometry">
            <mxPoint x="515" y="910" as="sourcePoint" />
            <mxPoint x="510" y="853" as="targetPoint" />
          </mxGeometry>
        </mxCell>
        <mxCell id="cwxM7d6N_yPW7Ndx6GQJ-46" value="" style="endArrow=none;html=1;rounded=0;exitX=0.5;exitY=0;exitDx=0;exitDy=0;entryX=1;entryY=0.5;entryDx=0;entryDy=0;" edge="1" parent="WIyWlLk6GJQsqaUBKTNV-1" target="cwxM7d6N_yPW7Ndx6GQJ-35">
          <mxGeometry width="50" height="50" relative="1" as="geometry">
            <mxPoint x="640" y="910" as="sourcePoint" />
            <mxPoint x="665" y="830" as="targetPoint" />
          </mxGeometry>
        </mxCell>
        <mxCell id="cwxM7d6N_yPW7Ndx6GQJ-47" value="Use" style="rhombus;whiteSpace=wrap;html=1;" vertex="1" parent="WIyWlLk6GJQsqaUBKTNV-1">
          <mxGeometry x="377" y="650" width="80" height="80" as="geometry" />
        </mxCell>
        <mxCell id="cwxM7d6N_yPW7Ndx6GQJ-48" value="" style="endArrow=none;html=1;rounded=0;entryX=0.567;entryY=1.017;entryDx=0;entryDy=0;entryPerimeter=0;exitX=0.5;exitY=0;exitDx=0;exitDy=0;" edge="1" parent="WIyWlLk6GJQsqaUBKTNV-1" source="cwxM7d6N_yPW7Ndx6GQJ-35">
          <mxGeometry width="50" height="50" relative="1" as="geometry">
            <mxPoint x="418" y="760" as="sourcePoint" />
            <mxPoint x="418.02" y="730" as="targetPoint" />
          </mxGeometry>
        </mxCell>
        <mxCell id="cwxM7d6N_yPW7Ndx6GQJ-49" value="" style="endArrow=none;html=1;rounded=0;entryX=0.567;entryY=1.017;entryDx=0;entryDy=0;entryPerimeter=0;exitX=0.5;exitY=0;exitDx=0;exitDy=0;" edge="1" parent="WIyWlLk6GJQsqaUBKTNV-1" source="cwxM7d6N_yPW7Ndx6GQJ-47">
          <mxGeometry width="50" height="50" relative="1" as="geometry">
            <mxPoint x="416" y="639" as="sourcePoint" />
            <mxPoint x="418" y="520" as="targetPoint" />
          </mxGeometry>
        </mxCell>
        <mxCell id="cwxM7d6N_yPW7Ndx6GQJ-50" value="M" style="text;html=1;align=center;verticalAlign=middle;whiteSpace=wrap;rounded=0;" vertex="1" parent="WIyWlLk6GJQsqaUBKTNV-1">
          <mxGeometry x="414" y="740" width="60" height="30" as="geometry" />
        </mxCell>
        <mxCell id="cwxM7d6N_yPW7Ndx6GQJ-51" value="1" style="text;html=1;align=center;verticalAlign=middle;whiteSpace=wrap;rounded=0;" vertex="1" parent="WIyWlLk6GJQsqaUBKTNV-1">
          <mxGeometry x="397" y="520" width="60" height="30" as="geometry" />
        </mxCell>
      </root>
    </mxGraphModel>
  </diagram>
</mxfile>
